<svg width="50" height="50" viewBox="0 0 50 50" fill="none" xmlns="http://www.w3.org/2000/svg">
<g clip-path="url(#clip0_970_5069)">
<path d="M25.3496 0.0507812C33.5794 0.0507815 41.8092 0.0507814 50.0496 0.0507814C50.0496 8.26869 50.0496 16.4866 50.0331 24.7216C49.8748 24.5261 49.733 24.3135 49.5897 24.0841C49.3585 23.7608 49.1251 23.457 48.8998 23.1473C48.1621 22.133 47.4272 21.1165 46.6897 20.0841C46.4439 19.7449 46.1008 19.4705 46.1969 18.9889C46.2286 18.8296 46.2274 18.6637 46.2456 18.48C46.2831 18.1767 46.3164 17.894 46.3496 17.6113C46.3962 17.2148 46.4479 16.8188 46.4877 16.4216C46.5283 16.0153 46.5572 15.6078 46.5949 15.1798C46.6322 14.8833 46.6704 14.6082 46.6986 14.3322C46.7395 13.9322 46.7334 13.5225 46.8201 13.1332C46.9243 12.6655 46.6072 12.2911 46.3274 12.1652C45.31 11.7077 44.2885 11.2591 43.2691 10.8062C42.6364 10.5251 42.0156 10.2126 41.3688 9.96919C40.8317 9.76709 40.3556 9.54266 40.2057 8.92784C40.1987 8.89916 40.1728 8.87512 40.1532 8.82992C39.7959 7.99693 39.443 7.1821 39.0859 6.36916C38.7054 5.50331 38.3185 4.64032 37.9395 3.77382C37.8036 3.46313 37.345 3.20968 37.0362 3.25203C36.4602 3.33102 35.8813 3.38903 35.303 3.44978C34.9189 3.49013 34.5333 3.51557 34.1492 3.55575C33.5625 3.61712 32.9763 3.68432 32.3902 3.75126C31.9998 3.79584 31.6106 3.85305 31.2193 3.8872C31.0307 3.90366 30.7956 3.94895 30.6559 3.86192C30.1649 3.55614 29.7052 3.19989 29.2353 2.86047C27.9396 1.92453 26.6448 0.987425 25.3496 0.0507812Z" fill="white"/>
<path d="M50.0497 25.3496C50.0497 33.5794 50.0497 41.8092 50.0497 50.0496C41.8318 50.0496 33.6138 50.0496 25.3789 50.0331C25.4392 49.9716 25.5208 49.9328 25.593 49.8809C26.1625 49.4721 26.7307 49.0614 27.2983 48.65C28.2422 47.9659 29.1846 47.2797 30.1294 46.5967C30.4251 46.383 30.6935 46.1003 31.1185 46.1979C31.2454 46.2271 31.3773 46.2362 31.5074 46.2492C31.875 46.2858 32.2432 46.3161 32.6105 46.3555C33.1884 46.4174 33.7655 46.4874 34.3435 46.5488C34.7352 46.5905 35.1285 46.6183 35.5202 46.6611C36.057 46.7197 36.5917 46.8006 37.1296 46.8445C37.4573 46.8713 37.8247 46.5969 37.9475 46.3131C38.3671 45.3432 38.7935 44.3763 39.2187 43.4088C39.5327 42.6941 39.8297 41.9709 40.1732 41.2705C40.3203 40.9706 40.3448 40.5807 40.7209 40.4023C41.7444 39.9573 42.749 39.5149 43.7536 39.0724C44.6096 38.6954 45.4642 38.3151 46.3222 37.9426C46.6324 37.8079 46.9024 37.3511 46.8475 37.0432C46.806 36.8104 46.7745 36.5752 46.7512 36.3397C46.6961 35.7842 46.6529 35.2275 46.5956 34.6723C46.5741 34.4634 46.5268 34.2572 46.4948 34.0274C46.4127 33.1866 46.327 32.3681 46.2448 31.5278C46.2351 31.4099 46.2018 31.3113 46.2127 31.218C46.2367 31.0109 46.1126 30.8034 46.2719 30.5925C46.6676 30.069 47.039 29.5272 47.4325 28.9792C48.3131 27.7604 49.1814 26.555 50.0497 25.3496Z" fill="white"/>
<path d="M0.0498047 24.7008C0.0498048 16.4877 0.0498048 8.27453 0.0498048 0.0507813C8.26771 0.0507813 16.4856 0.0507812 24.7205 0.0672127C24.66 0.12897 24.5787 0.168695 24.5059 0.220508C23.9274 0.632624 23.3487 1.04444 22.7736 1.46133C21.8407 2.13759 20.9078 2.81393 19.9807 3.49806C19.6532 3.73972 19.3508 3.98302 18.8899 3.90382C18.3255 3.80686 17.7519 3.76294 17.1816 3.70193C16.8057 3.66171 16.4283 3.63594 16.0524 3.59631C15.4655 3.53445 14.8795 3.46453 14.2928 3.40149C13.9009 3.35939 13.5048 3.34396 13.1171 3.27866C12.7326 3.21393 12.3231 3.40633 12.165 3.76466C11.5787 5.09287 10.9876 6.41898 10.4016 7.74731C10.2478 8.0959 10.1056 8.44963 9.95008 8.81724C9.87463 8.9809 9.79847 9.12503 9.74187 9.27647C9.65676 9.50422 9.50403 9.64724 9.27949 9.74158C8.61188 10.0221 7.94841 10.3126 7.28579 10.6047C6.25776 11.0581 5.23104 11.5144 4.20554 11.9734C3.99845 12.0661 3.77393 12.1452 3.60162 12.285C3.22076 12.5941 3.13888 13.1456 3.35468 13.6733C3.38403 14.021 3.41899 14.3461 3.44909 14.6716C3.5011 15.234 3.54666 15.797 3.6022 16.3591C3.62187 16.5581 3.66276 16.755 3.6964 16.9755C3.71582 17.2363 3.72937 17.4749 3.7506 17.7127C3.78346 18.0808 3.78938 18.4553 3.86637 18.8143C3.94565 19.184 3.90337 19.4924 3.65128 19.7784C3.52314 19.9238 3.42165 20.0927 3.30052 20.2666C3.26383 20.3116 3.23027 20.3379 3.20628 20.371C2.43477 21.438 1.66584 22.5068 0.892568 23.5725C0.616907 23.9524 0.331023 24.3249 0.0498047 24.7008Z" fill="white"/>
<path d="M24.7498 50.0495C16.52 50.0495 8.29024 50.0495 0.0498047 50.0495C0.0498047 41.8483 0.0498047 33.647 0.0664322 25.4277C0.18961 25.5614 0.293139 25.7154 0.403257 25.8645C0.782278 26.3778 1.1636 26.8894 1.55148 27.4175C2.20124 28.3259 2.84348 29.2184 3.48596 30.1108C3.7039 30.4135 3.99974 30.6821 3.90156 31.1177C3.87294 31.2447 3.86404 31.3763 3.85022 31.5063C3.81038 31.881 3.77077 32.2558 3.73458 32.6309C3.69057 33.087 3.65014 33.5434 3.60393 34.0205C3.53308 34.6183 3.46326 35.195 3.40094 35.7725C3.35776 36.1726 3.34532 36.5772 3.28068 36.9736C3.23309 37.2654 3.25959 37.5274 3.49224 37.7061C3.71507 37.8772 3.96757 38.0189 4.22457 38.1346C5.37486 38.6524 6.53104 39.1572 7.68586 39.6649C8.2888 39.93 8.89333 40.1915 9.50575 40.4703C9.56085 40.5471 9.621 40.6021 9.65176 40.6704C10.0359 41.5234 10.4174 42.3776 10.7963 43.2328C11.2545 44.2669 11.7106 45.3019 12.1654 46.3374C12.305 46.6552 12.7644 46.8947 13.099 46.8499C13.6834 46.7718 14.2705 46.7131 14.8568 46.6505C15.2243 46.6113 15.593 46.5836 15.9604 46.5439C16.5304 46.4822 17.0998 46.4154 17.6693 46.3495C18.0757 46.3024 18.4811 46.2434 18.8887 46.2089C19.0763 46.193 19.3121 46.1548 19.4499 46.2442C20.0514 46.634 20.6265 47.0647 21.2082 47.4848C22.3898 48.3382 23.5694 49.1945 24.7498 50.0495Z" fill="white"/>
<path d="M24.7733 50.0492C23.5699 49.1942 22.3903 48.3379 21.2087 47.4845C20.627 47.0644 20.0519 46.6337 19.4504 46.2439C19.3126 46.1545 19.0768 46.1927 18.8891 46.2086C18.4816 46.2431 18.0762 46.3021 17.6697 46.3492C17.1003 46.4151 16.5309 46.4819 15.9609 46.5436C15.5935 46.5833 15.2248 46.611 14.8573 46.6502C14.2709 46.7128 13.6839 46.7715 13.0995 46.8496C12.7649 46.8944 12.3055 46.6549 12.1659 46.3371C11.7111 45.3016 11.255 44.2666 10.7968 43.2325C10.4178 42.3773 10.0364 41.5231 9.65224 40.6701C9.62148 40.6018 9.56133 40.5468 9.52051 40.4543C9.61631 40.415 9.70644 40.4003 9.79658 40.4003C11.1784 40.3989 12.5602 40.3994 13.9457 40.4177C14.2411 41.0898 14.5434 41.7391 14.8179 42.4C14.9032 42.6052 15.0311 42.6164 15.2028 42.5958C15.4708 42.5636 15.7384 42.5281 16.0069 42.5002C16.3744 42.4619 16.7431 42.4333 17.1105 42.3936C17.6804 42.3319 18.2496 42.2629 18.8194 42.1999C19.2106 42.1566 19.6043 42.1307 19.9934 42.0733C20.2709 42.0324 20.5294 42.0329 20.7659 42.2032C21.0176 42.3845 21.2705 42.564 21.5214 42.7465C22.6951 43.6 23.8683 44.4542 25.0457 45.3111C25.4805 44.9986 25.9047 44.6959 26.3265 44.39C27.1918 43.7624 28.0524 43.1284 28.9225 42.5076C29.1825 42.322 29.408 42.0514 29.7651 42.0526C30.0116 42.0535 30.2588 42.0782 30.5044 42.1044C31.0743 42.1655 31.6431 42.2379 32.2132 42.298C32.6054 42.3393 32.9999 42.3605 33.3919 42.4039C33.9204 42.4624 34.4474 42.5339 34.9752 42.599C35.107 42.6152 35.1942 42.5868 35.2572 42.4402C35.5655 41.7229 35.8899 41.0124 36.2315 40.2994C37.6155 40.2993 38.9766 40.2966 40.3377 40.3038C40.4596 40.3045 40.5811 40.3694 40.7028 40.4045C40.3454 40.5804 40.3209 40.9702 40.1738 41.2702C39.8303 41.9705 39.5334 42.6937 39.2193 43.4084C38.7942 44.3759 38.3678 45.3428 37.9482 46.3127C37.8254 46.5966 37.4579 46.8709 37.1302 46.8442C36.5923 46.8002 36.0576 46.7193 35.5208 46.6607C35.1291 46.618 34.7359 46.5901 34.3441 46.5485C33.7661 46.4871 33.189 46.417 32.6111 46.3551C32.2438 46.3157 31.8756 46.2855 31.508 46.2488C31.3779 46.2359 31.246 46.2267 31.1191 46.1975C30.6942 46.0999 30.4257 46.3826 30.13 46.5964C29.1852 47.2794 28.2428 47.9655 27.2989 48.6497C26.7313 49.0611 26.1631 49.4717 25.5937 49.8805C25.5214 49.9324 25.4398 49.9713 25.3564 50.0327C25.1656 50.0492 24.981 50.0492 24.7733 50.0492Z" fill="#080808"/>
<path d="M9.95801 8.801C10.1055 8.44963 10.2477 8.0959 10.4015 7.74731C10.9875 6.41898 11.5786 5.09287 12.1648 3.76466C12.323 3.40633 12.7325 3.21393 13.1169 3.27866C13.5047 3.34397 13.9008 3.35939 14.2927 3.40149C14.8794 3.46453 15.4654 3.53445 16.0523 3.59631C16.4282 3.63594 16.8056 3.66171 17.1815 3.70193C17.7518 3.76294 18.3254 3.80686 18.8897 3.90382C19.3507 3.98302 19.6531 3.73972 19.9806 3.49806C20.9077 2.81393 21.8406 2.13759 22.7735 1.46133C23.3485 1.04444 23.9273 0.632624 24.5058 0.220508C24.5786 0.168695 24.6599 0.12897 24.7435 0.0672129C24.9343 0.0507814 25.119 0.0507815 25.3267 0.0507812C26.6449 0.987425 27.9397 1.92453 29.2354 2.86047C29.7053 3.19989 30.165 3.55614 30.656 3.86192C30.7957 3.94895 31.0308 3.90366 31.2194 3.8872C31.6107 3.85305 31.9999 3.79584 32.3903 3.75126C32.9764 3.68432 33.5625 3.61712 34.1493 3.55575C34.5334 3.51557 34.919 3.49013 35.3031 3.44978C35.8814 3.38903 36.4603 3.33102 37.0363 3.25203C37.3451 3.20968 37.8037 3.46313 37.9396 3.77382C38.3186 4.64032 38.7055 5.50331 39.0859 6.36916C39.4431 7.1821 39.796 7.99693 40.1294 8.83049C38.6698 8.85086 37.2317 8.85166 35.7779 8.84321C35.5974 8.4525 35.4202 8.07571 35.2726 7.68766C35.1976 7.49054 35.0654 7.48539 34.9053 7.50472C34.5152 7.55182 34.1262 7.60883 33.7355 7.64914C33.1796 7.70649 32.6219 7.74544 32.0663 7.80506C31.3656 7.88025 30.6676 7.98486 29.9656 8.04056C29.7612 8.05677 29.5128 8.00093 29.3435 7.88893C28.7646 7.50588 28.2118 7.08346 27.6494 6.6755C26.784 6.04766 25.9188 5.41936 25.052 4.79014C24.6143 5.10501 24.1892 5.40852 23.7665 5.7154C22.9002 6.34442 22.0384 6.97975 21.1678 7.60286C20.868 7.8175 20.5978 8.11211 20.1689 8.05233C19.9818 8.02625 19.7924 8.01733 19.6044 7.9972C19.0011 7.9326 18.3981 7.86467 17.7946 7.80147C17.4268 7.76296 17.0578 7.73551 16.6903 7.69465C16.145 7.63402 15.6011 7.56005 15.055 7.50886C14.9913 7.50289 14.8885 7.59049 14.8533 7.65983C14.6622 8.03639 14.4867 8.42083 14.282 8.80201C12.8248 8.80131 11.3914 8.80115 9.95801 8.801Z" fill="#080808"/>
<path d="M1.54405 27.402C1.1636 26.8898 0.782278 26.3782 0.403257 25.8649C0.29314 25.7158 0.18961 25.5618 0.0664324 25.405C0.0498048 25.1821 0.0498048 24.9642 0.0498047 24.7231C0.331023 24.324 0.616907 23.9516 0.892568 23.5717C1.66584 22.506 2.43477 21.4371 3.20628 20.3702C3.23027 20.337 3.26383 20.3107 3.32169 20.2656C3.70638 20.2666 4.06224 20.2958 4.41824 20.2976C5.62597 20.3037 6.83374 20.3 8.04486 20.3199C7.95646 20.5434 7.89587 20.7695 7.76798 20.9471C6.78294 22.3149 5.78485 23.6733 4.78785 25.0387C5.3449 25.8174 5.89318 26.5838 6.41856 27.3501C5.02529 27.35 3.65493 27.3474 2.28459 27.3523C2.03768 27.3531 1.79089 27.3846 1.54405 27.402Z" fill="#080808"/>
<path d="M50.0504 25.3266C49.1821 26.555 48.3138 27.7603 47.4214 28.9582C47.294 28.9336 47.1907 28.902 47.0873 28.9018C45.573 28.8979 44.0587 28.8983 42.5518 28.8817C42.7127 28.6455 42.8628 28.4226 43.0205 28.2054C43.7344 27.2222 44.4498 26.2402 45.1661 25.2588C45.2724 25.1131 45.2698 24.9808 45.1616 24.8334C44.9987 24.6113 44.8494 24.3792 44.714 24.1432C44.8314 24.1232 44.9291 24.1012 45.0269 24.1011C46.5486 24.099 48.0703 24.0997 49.592 24.0998C49.7338 24.3123 49.8756 24.5249 50.0339 24.7435C50.0504 24.9342 50.0504 25.1189 50.0504 25.3266Z" fill="#080808"/>
<path d="M35.7939 8.8526C37.2321 8.85179 38.6703 8.85098 40.1323 8.84961C40.1733 8.87524 40.1993 8.89929 40.2063 8.92797C40.3562 9.54279 40.8322 9.76722 41.3693 9.96932C42.0162 10.2127 42.6369 10.5252 43.2696 10.8063C44.2891 11.2593 45.3105 11.7078 46.3279 12.1654C46.6077 12.2912 46.9249 12.6656 46.8207 13.1333C46.734 13.5226 46.7401 13.9323 46.6992 14.3323C46.671 14.6084 46.6328 14.8834 46.5726 15.1799C45.2288 15.2003 43.9115 15.1997 42.5966 15.1783C42.647 14.9662 42.5398 14.8793 42.3813 14.8116C41.8353 14.578 41.2911 14.3403 40.748 14.0999C39.8324 13.6946 38.9219 13.2774 38.0017 12.8829C37.625 12.7214 37.3674 12.4755 37.2159 12.0937C37.0479 11.6703 36.8523 11.258 36.6687 10.8408C36.3771 10.1781 36.0855 9.51533 35.7939 8.8526Z" fill="#080808"/>
<path d="M49.5906 24.0829C48.0704 24.0997 46.5486 24.099 45.0269 24.1011C44.9292 24.1012 44.8315 24.1232 44.6986 24.1363C44.5749 24.0209 44.4843 23.9056 44.3981 23.7871C43.7644 22.9158 43.1287 22.0459 42.4999 21.1711C42.2697 20.8507 41.9612 20.5572 42.0817 20.0996C43.6338 20.0996 45.1629 20.0997 46.6921 20.0997C47.4281 21.1153 48.1629 22.1318 48.9007 23.1461C49.1259 23.4558 49.3593 23.7596 49.5906 24.0829Z" fill="#080808"/>
<path d="M42.5944 15.1973C43.9117 15.1979 45.229 15.1985 46.5692 15.1991C46.558 15.6061 46.5292 16.0136 46.4885 16.4199C46.4487 16.8171 46.397 17.2131 46.3504 17.6096C46.3172 17.8923 46.284 18.175 46.2235 18.4784C44.8838 18.4991 43.5713 18.4991 42.2553 18.4768C42.2514 18.4296 42.2485 18.4045 42.2509 18.3799C42.3352 17.5004 42.418 16.6207 42.5064 15.7416C42.5248 15.5591 42.5645 15.3787 42.5944 15.1973Z" fill="#080808"/>
<path d="M42.2579 18.5C43.5704 18.5 44.883 18.5 46.2184 18.5C46.2274 18.6629 46.2286 18.8288 46.1968 18.9881C46.1007 19.4698 46.4438 19.7441 46.6896 20.0833C45.1621 20.1001 43.6329 20.1001 42.0781 20.0792C42.0849 19.8026 42.1161 19.5465 42.1498 19.2908C42.1846 19.0271 42.2218 18.7636 42.2579 18.5Z" fill="#080808"/>
<path d="M40.7215 40.4034C40.581 40.3709 40.4595 40.306 40.3376 40.3053C38.9766 40.2981 37.6155 40.3008 36.2334 40.2831C36.5431 39.5223 36.8676 38.7763 37.2079 38.0376C37.3259 37.7814 37.4195 37.4976 37.7132 37.3657C38.2707 37.1153 38.8244 36.8566 39.3824 36.6076C40.3991 36.1539 41.4156 35.6995 42.438 35.2588C42.6147 35.1827 42.6088 35.0734 42.5935 34.9296C42.5625 34.6369 42.5366 34.3438 42.5315 34.0508C43.8669 34.0508 45.1794 34.0508 46.4919 34.0509C46.5274 34.2583 46.5746 34.4645 46.5962 34.6734C46.6535 35.2287 46.6966 35.7854 46.7517 36.3409C46.7751 36.5763 46.8066 36.8115 46.8481 37.0443C46.903 37.3523 46.6329 37.809 46.3228 37.9437C45.4648 38.3163 44.6102 38.6965 43.7542 39.0736C42.7496 39.5161 41.7449 39.9584 40.7215 40.4034Z" fill="#080808"/>
<path d="M42.5443 28.8984C44.0586 28.8991 45.5729 28.8988 47.0872 28.9026C47.1906 28.9029 47.2939 28.9345 47.4091 28.9725C47.0397 29.528 46.6682 30.0698 46.2726 30.5933C46.1132 30.8042 46.2374 31.0117 46.2133 31.2188C46.2025 31.3122 46.2357 31.4107 46.2226 31.5286C44.8789 31.551 43.5615 31.5516 42.2269 31.5401C42.1567 31.0237 42.113 30.5183 42.0485 30.0155C41.9872 29.5366 42.2684 29.2214 42.5443 28.8984Z" fill="#080808"/>
<path d="M42.2441 31.5525C43.5615 31.5519 44.8788 31.5513 46.219 31.5508C46.3276 32.3693 46.4133 33.1878 46.4954 34.0286C45.1794 34.0508 43.8669 34.0508 42.5272 34.0301C42.4828 33.8479 42.4654 33.6864 42.4487 33.5249C42.3804 32.8674 42.3123 32.2099 42.2441 31.5525Z" fill="#080808"/>
<path d="M9.95007 8.81627C11.3915 8.80018 12.8249 8.80034 14.2795 8.82C14.2148 9.04996 14.1339 9.26258 14.0423 9.47048C13.6582 10.3423 13.2683 11.2115 12.886 12.0841C12.7367 12.4248 12.5437 12.7079 12.1719 12.8477C11.8372 12.9735 11.5179 13.1399 11.1885 13.2805C10.8449 13.4272 10.4974 13.5645 10.1377 13.69C10.0253 13.666 9.92685 13.6509 9.82841 13.6508C7.67164 13.6495 5.51487 13.6498 3.3581 13.6498C3.13887 13.1446 3.22075 12.5931 3.60161 12.2841C3.77392 12.1442 3.99844 12.0651 4.20553 11.9724C5.23103 11.5134 6.25775 11.0571 7.28578 10.6038C7.9484 10.3116 8.61187 10.0211 9.27948 9.74061C9.50402 9.64627 9.65675 9.50325 9.74186 9.2755C9.79846 9.12406 9.87462 8.97992 9.95007 8.81627Z" fill="#080808"/>
<path d="M3.35449 13.6723C5.51469 13.6498 7.67146 13.6495 9.82824 13.6508C9.92667 13.6509 10.0251 13.666 10.1288 13.7053C9.31052 14.1067 8.48833 14.4796 7.66216 14.8436C7.53854 14.898 7.47722 14.96 7.49875 15.0971C7.53161 15.3064 7.56576 15.516 7.58635 15.7267C7.62615 16.1339 7.65686 16.5421 7.66843 16.9498C6.32827 16.9505 5.01102 16.9512 3.69378 16.9519C3.66258 16.754 3.62168 16.5571 3.60201 16.3581C3.54648 15.7961 3.50091 15.233 3.4489 14.6706C3.4188 14.3451 3.38384 14.0201 3.35449 13.6723Z" fill="#080808"/>
<path d="M3.69622 16.9752C5.01103 16.9519 6.32827 16.9512 7.67188 16.9718C7.73208 17.3174 7.76236 17.642 7.80065 17.9657C7.84558 18.3456 7.90504 18.7238 7.94423 19.1042C7.98523 19.5022 8.00964 19.9018 8.04131 20.3007C6.83355 20.3006 5.62578 20.3043 4.41806 20.2982C4.06206 20.2965 3.7062 20.2673 3.3291 20.2507C3.42147 20.0925 3.52295 19.9236 3.65109 19.7782C3.90319 19.4921 3.94547 19.1838 3.86618 18.8141C3.78919 18.4551 3.78327 18.0805 3.75041 17.7124C3.72918 17.4746 3.71564 17.2361 3.69622 16.9752Z" fill="#080808"/>
<path d="M13.9413 40.4006C12.5595 40.4005 11.1777 40.4 9.79594 40.4014C9.7058 40.4015 9.61567 40.4162 9.51126 40.4398C8.89317 40.1924 8.28864 39.9309 7.68569 39.6658C6.53088 39.158 5.37469 38.6533 4.22441 38.1355C3.96741 38.0198 3.7149 37.878 3.49208 37.7069C3.25942 37.5283 3.23292 37.2663 3.28052 36.9744C3.34516 36.5781 3.3576 36.1735 3.40078 35.7733C3.4631 35.1958 3.53292 34.6191 3.62664 34.0213C4.96626 34.0005 6.27877 34.0005 7.59472 34.0228C7.58041 34.2997 7.58171 34.5575 7.54053 34.8084C7.47735 35.1932 7.46724 35.1858 7.81131 35.3342C8.51373 35.6372 9.21401 35.9452 9.91407 36.2536C10.6365 36.5718 11.3572 36.8941 12.0796 37.2125C12.4093 37.3578 12.6829 37.5402 12.8342 37.9021C13.1855 38.7423 13.5702 39.5686 13.9413 40.4006Z" fill="#080808"/>
<path d="M7.59173 33.9996C6.27921 33.9996 4.9667 33.9996 3.63131 33.9996C3.65041 33.5434 3.69084 33.0869 3.73485 32.6308C3.77105 32.2557 3.81066 31.881 3.8505 31.5063C3.86431 31.3763 3.87322 31.2446 3.90184 31.1176C4.00001 30.682 3.70418 30.4134 3.48624 30.1107C2.84376 29.2184 2.20152 28.3258 1.55176 27.4174C1.79117 27.3842 2.03796 27.3527 2.28486 27.3518C3.6552 27.347 5.02557 27.3495 6.42643 27.3652C6.50464 27.4372 6.55599 27.4908 6.5995 27.5501C6.98481 28.0756 7.36732 28.6031 7.75365 29.1278C7.94098 29.3822 8.09692 29.6416 8.05189 29.9801C8.00874 30.3045 7.98354 30.6314 7.94939 30.957C7.8666 31.7464 7.78586 32.5361 7.69834 33.325C7.67327 33.551 7.62783 33.7748 7.59173 33.9996Z" fill="#080808"/>
<path d="M7.59511 34.0221C7.62779 33.775 7.67322 33.5513 7.6983 33.3252C7.78582 32.5363 7.86655 31.7467 7.94934 30.9572C7.9835 30.6316 8.00869 30.3048 8.05185 29.9803C8.09687 29.6418 7.94093 29.3824 7.75361 29.128C7.36728 28.6033 6.98476 28.0758 6.59946 27.5503C6.55595 27.491 6.5046 27.4374 6.4493 27.3656C5.89342 26.5836 5.34513 25.8172 4.78809 25.0385C5.78508 23.6731 6.78317 22.3147 7.76822 20.9468C7.89611 20.7693 7.95669 20.5432 8.04509 20.3197C8.01006 19.901 7.98565 19.5013 7.94465 19.1034C7.90546 18.723 7.846 18.3448 7.80107 17.9649C7.76278 17.6412 7.73249 17.3165 7.69522 16.971C7.65729 16.542 7.62657 16.1338 7.58677 15.7266C7.56618 15.5159 7.53203 15.3063 7.49918 15.097C7.47764 14.9599 7.53896 14.8979 7.66258 14.8435C8.48875 14.4795 9.31094 14.1066 10.1431 13.7212C10.4976 13.5644 10.8452 13.4271 11.1887 13.2804C11.5181 13.1398 11.8374 12.9734 12.1722 12.8476C12.5439 12.7078 12.737 12.4247 12.8863 12.084C13.2685 11.2114 13.6584 10.3422 14.0425 9.47038C14.1341 9.26248 14.215 9.04986 14.3035 8.82045C14.487 8.41976 14.6626 8.03531 14.8536 7.65875C14.8888 7.58942 14.9917 7.50182 15.0553 7.50778C15.6014 7.55898 16.1454 7.63294 16.6907 7.69357C17.0582 7.73443 17.4271 7.76188 17.7949 7.8004C18.3984 7.8636 19.0014 7.93153 19.6048 7.99613C19.7928 8.01625 19.9822 8.02517 20.1693 8.05125C20.5981 8.11103 20.8683 7.81643 21.1682 7.60179C22.0387 6.97867 22.9005 6.34335 23.7669 5.71433C24.1896 5.40745 24.6147 5.10394 25.0523 4.78906C25.9192 5.41828 26.7843 6.04659 27.6498 6.67443C28.2121 7.08239 28.765 7.50481 29.3438 7.88786C29.5131 7.99986 29.7616 8.0557 29.966 8.03948C30.668 7.98379 31.366 7.87917 32.0666 7.80398C32.6222 7.74436 33.18 7.70541 33.7358 7.64807C34.1266 7.60775 34.5156 7.55074 34.9057 7.50364C35.0657 7.48432 35.1979 7.48946 35.2729 7.68658C35.4205 8.07464 35.5977 8.45143 35.7783 8.84214C36.0854 9.51413 36.377 10.1769 36.6686 10.8396C36.8521 11.2568 37.0478 11.6691 37.2157 12.0925C37.3672 12.4743 37.6249 12.7202 38.0016 12.8817C38.9218 13.2762 39.8323 13.6934 40.7479 14.0987C41.2909 14.3391 41.8352 14.5768 42.3812 14.8104C42.5397 14.8781 42.6469 14.965 42.5965 15.1771C42.5641 15.3793 42.5244 15.5597 42.5061 15.7422C42.4176 16.6213 42.3348 17.501 42.2505 18.3805C42.2481 18.4051 42.251 18.4303 42.2549 18.4774C42.2223 18.7633 42.1851 19.0268 42.1503 19.2905C42.1166 19.5462 42.0853 19.8023 42.0557 20.079C41.9608 20.5574 42.2693 20.8509 42.4995 21.1712C43.1283 22.0461 43.764 22.9159 44.3977 23.7872C44.4839 23.9057 44.5745 24.021 44.6786 24.1446C44.8491 24.3793 44.9983 24.6114 45.1613 24.8335C45.2695 24.9809 45.272 25.1132 45.1658 25.2589C44.4495 26.2403 43.734 27.2223 43.0202 28.2055C42.8625 28.4228 42.7124 28.6456 42.5514 28.8818C42.2681 29.2207 41.9869 29.5359 42.0483 30.0147C42.1127 30.5175 42.1564 31.023 42.2266 31.5393C42.3121 32.2089 42.3802 32.8664 42.4484 33.5238C42.4652 33.6853 42.4826 33.8468 42.5041 34.029C42.5364 34.3427 42.5623 34.6359 42.5933 34.9285C42.6086 35.0723 42.6145 35.1816 42.4378 35.2578C41.4155 35.6985 40.399 36.1529 39.3822 36.6066C38.8242 36.8556 38.2705 37.1143 37.7131 37.3646C37.4193 37.4966 37.3257 37.7804 37.2077 38.0365C36.8675 38.7753 36.543 39.5213 36.2103 40.2822C35.8896 41.0129 35.5652 41.7233 35.2569 42.4407C35.194 42.5872 35.1068 42.6157 34.975 42.5995C34.4472 42.5344 33.9201 42.4628 33.3916 42.4044C32.9996 42.361 32.6052 42.3398 32.2129 42.2984C31.6429 42.2383 31.0741 42.1659 30.5041 42.1049C30.2586 42.0786 30.0114 42.054 29.7649 42.0531C29.4077 42.0518 29.1823 42.3225 28.9223 42.508C28.0522 43.1288 27.1916 43.7629 26.3263 44.3904C25.9044 44.6963 25.4803 44.999 25.0455 45.3116C23.868 44.4547 22.6949 43.6004 21.5211 42.7469C21.2703 42.5645 21.0174 42.3849 20.7657 42.2037C20.5291 42.0334 20.2707 42.0328 19.9931 42.0738C19.604 42.1312 19.2104 42.1571 18.8191 42.2003C18.2493 42.2634 17.6802 42.3324 17.1102 42.394C16.7428 42.4338 16.3742 42.4624 16.0066 42.5006C15.7382 42.5286 15.4705 42.564 15.2026 42.5962C15.0308 42.6169 14.9029 42.6057 14.8177 42.4005C14.5432 41.7396 14.2409 41.0903 13.9455 40.4182C13.5706 39.5679 13.1859 38.7417 12.8346 37.9014C12.6833 37.5395 12.4097 37.3571 12.08 37.2118C11.3576 36.8935 10.6369 36.5712 9.91447 36.2529C9.21441 35.9445 8.51412 35.6365 7.81171 35.3335C7.46763 35.1851 7.47775 35.1925 7.54092 34.8077C7.5821 34.5569 7.58081 34.2991 7.59511 34.0221ZM26.9671 22.6585C25.1975 24.4297 23.4279 26.2009 21.6506 27.9798C20.4566 26.7844 19.287 25.6212 18.1293 24.4462C17.9605 24.2749 17.8727 24.2929 17.7152 24.4529C16.8328 25.3497 15.9393 26.2355 15.05 27.1256C14.9935 27.1821 14.9414 27.243 14.9251 27.2607C17.1919 29.5271 19.44 31.7748 21.7128 34.0471C21.7333 34.0195 21.7671 33.9598 21.8139 33.9131C25.4832 30.2413 29.1537 26.5706 32.8236 22.8995C32.8702 22.8529 32.9117 22.8012 32.986 22.7387C33.9793 21.7457 34.9726 20.7527 35.9756 19.75C35.0659 18.8404 34.1771 17.9518 33.2884 17.0631C32.9883 16.7631 32.86 16.7645 32.5531 17.0714C30.7565 18.8678 28.96 20.6642 27.164 22.4611C27.1057 22.5194 27.0529 22.5832 26.9671 22.6585Z" fill="white"/>
<path d="M32.9553 22.7526C32.9114 22.8019 32.8699 22.8536 32.8233 22.9002C29.1534 26.5714 25.483 30.2421 21.8136 33.9138C21.7668 33.9606 21.733 34.0202 21.7125 34.0478C19.4397 31.7755 17.1916 29.5278 14.9248 27.2615C14.9411 27.2438 14.9932 27.1829 15.0497 27.1263C15.939 26.2363 16.8325 25.3505 17.7149 24.4537C17.8724 24.2937 17.9602 24.2756 18.129 24.447C19.2868 25.6219 20.4563 26.7852 21.6504 27.9805C23.4276 26.2016 25.1972 24.4304 26.9963 22.668C27.1159 22.6846 27.206 22.6994 27.2961 22.6994C29.0692 22.7008 30.8423 22.6995 32.6153 22.7027C32.7287 22.7029 32.842 22.7352 32.9553 22.7526Z" fill="#080808"/>
<path d="M32.9707 22.7455C32.8422 22.7347 32.7289 22.7023 32.6155 22.7021C30.8424 22.6989 29.0694 22.7002 27.2963 22.6989C27.2062 22.6988 27.116 22.6841 27.0117 22.6603C27.0528 22.5833 27.1056 22.5196 27.1639 22.4613C28.9599 20.6644 30.7564 18.868 32.553 17.0716C32.8599 16.7647 32.9882 16.7633 33.2883 17.0633C34.177 17.952 35.0658 18.8406 35.9755 19.7502C34.9725 20.7528 33.9792 21.7459 32.9707 22.7455Z" fill="#080808"/>
</g>
<defs>
<clipPath id="clip0_970_5069">
<rect width="50" height="50" fill="white"/>
</clipPath>
</defs>
</svg>
